<svg width="25" height="7" viewBox="0 0 25 7" fill="none" xmlns="http://www.w3.org/2000/svg">
<path fill-rule="evenodd" clip-rule="evenodd" d="M3.45306 6.12472C5.0916 6.12472 6.41991 4.91474 6.41991 3.42216C6.41991 1.92958 5.0916 0.719604 3.45306 0.719604C1.81451 0.719604 0.486206 1.92958 0.486206 3.42216C0.486206 4.91474 1.81451 6.12472 3.45306 6.12472ZM12.3536 6.12472C13.9921 6.12472 15.3204 4.91474 15.3204 3.42216C15.3204 1.92958 13.9921 0.719604 12.3536 0.719604C10.715 0.719604 9.38673 1.92958 9.38673 3.42216C9.38673 4.91474 10.715 6.12472 12.3536 6.12472ZM24.221 3.42216C24.221 4.91474 22.8927 6.12472 21.2541 6.12472C19.6156 6.12472 18.2873 4.91474 18.2873 3.42216C18.2873 1.92958 19.6156 0.719604 21.2541 0.719604C22.8927 0.719604 24.221 1.92958 24.221 3.42216Z" fill="#CDCCCA"/>
</svg>
