<svg width="1512" height="510" viewBox="0 0 1512 510" fill="none" xmlns="http://www.w3.org/2000/svg">
<path fill-rule="evenodd" clip-rule="evenodd" d="M1113.91 416.751C1130.78 402.227 1146.5 388.691 1164.05 382.359C1165.19 381.95 1166 380.925 1166.11 379.723C1170.9 329.474 1203.73 282.836 1237.99 241.417C1241.2 237.357 1245.15 233.899 1249.04 230.498C1252.3 227.64 1255.52 224.823 1258.22 221.722C1283.5 192.519 1319.74 157.882 1361.87 157.882C1379.57 157.882 1401.48 161.957 1419.18 174.182C1426.77 179.615 1429.29 182.332 1431.82 187.765C1444.46 214.251 1449.52 219.005 1468.9 219.005C1473.82 219.005 1479.63 218.697 1486.73 218.32C1497.88 217.728 1512.21 216.968 1531.27 216.968C1570.88 216.968 1597 229.193 1597 240.738C1597 247.529 1590.26 250.246 1581.83 252.963C1576.55 254.483 1573.97 256.003 1571.6 257.402C1568.67 259.127 1566.06 260.666 1559.08 261.791C1549 263.091 1539.69 265.167 1530.24 267.277C1519.92 269.578 1509.43 271.92 1497.56 273.337C1485.76 274.695 1474.8 274.695 1466.38 274.695C1463 274.695 1460.48 276.733 1458.79 282.166C1436.88 354.155 1408.23 411.203 1355.98 457.385C1355.4 457.887 1354.82 458.394 1354.24 458.905C1334.26 476.375 1308.59 498.813 1273.39 498.813C1264.12 498.813 1254 496.775 1245.58 493.38C1216.69 482.039 1192.36 468.075 1181.74 453.793C1180.6 452.253 1178.34 451.946 1176.93 453.258C1149.44 478.978 1110.72 509 1070.29 509C1065.23 509 1060.17 508.321 1055.12 507.642C1023.93 502.209 1000.34 490.663 985.168 477.759C980.034 473.415 976.151 469.449 973.233 465.438C972.136 463.93 969.968 463.592 968.553 464.805C942.466 487.178 909.244 509 874.769 509C869.712 509 864.656 508.321 859.599 507.642C828.418 502.209 804.821 490.663 789.651 477.759C776.108 466.299 771.271 457.47 769.893 443.521C769.66 441.163 766.978 439.821 765.013 441.143C740.856 457.396 707.724 475.751 655.655 499.492C643.857 504.925 632.901 506.963 618.574 506.963C593.292 506.963 565.482 498.134 526.715 481.834C505.647 473.005 490.477 453.989 481.207 432.257C474.465 416.636 470.252 400.337 470.252 384.717C470.252 375.209 471.937 366.38 475.308 356.872C485.503 328.258 501.124 301.417 520.397 275.954C520.682 275.577 520.485 275.031 520.025 274.925C513.553 273.435 507.232 271.979 503.119 271.979C498.905 271.979 466.881 284.882 443.284 297.107C373.336 333.102 310.13 387.433 288.219 467.572C284.848 479.797 278.106 488.626 265.465 497.455C259.566 501.529 252.824 502.888 246.924 502.888C233.44 502.888 224.17 498.134 209.001 484.551C199.731 476.401 192.989 465.535 192.989 457.385C192.989 442.078 204.848 428.443 216.609 414.922C224.676 405.647 232.697 396.425 236.811 386.754C255.352 343.968 273.049 301.182 287.376 257.717C292.433 242.775 295.804 227.155 295.804 223.759C295.804 220.784 294.006 218.613 292.161 216.385C290.216 214.036 288.219 211.624 288.219 208.139C288.219 198.631 309.287 189.802 332.042 189.802C350.582 189.802 365.751 197.273 368.28 200.668C379.235 215.61 381.763 227.834 381.763 237.342C381.763 246.035 380.685 251.686 380.253 253.946C380.145 254.511 380.078 254.864 380.078 255C380.078 256.358 380.921 257.037 381.763 257.037C383.449 257.037 385.977 255.679 390.191 252.963C417.159 236.663 469.409 208.818 497.219 208.818C519.993 208.818 543.969 213.662 561.534 224.984C562.763 225.777 564.386 225.629 565.415 224.59C581.872 207.971 599.514 191.892 617.732 176.219C636.272 160.599 669.139 144.299 713.805 144.299C730.659 144.299 751.728 147.016 770.268 152.449C796.393 159.92 803.978 180.294 803.978 197.952C803.978 225.118 778.696 262.471 759.313 281.487C707.063 333.102 646.385 384.717 572.224 420.711C563.796 424.786 562.953 425.465 562.953 428.861C562.953 432.936 570.538 445.84 578.123 448.556C583.179 450.594 588.236 451.952 594.135 451.952C615.953 451.952 642.165 438.801 655.438 432.142L655.439 432.142L655.44 432.141C657.546 431.084 659.327 430.191 660.712 429.54C688.287 416.637 711.403 400.517 733.404 385.176C753.09 371.448 771.883 358.343 792.18 348.722C792.791 348.426 793.394 348.145 793.988 347.877C794.644 347.582 795.182 347.072 795.497 346.425C796.518 344.327 797.544 342.232 798.569 340.139L798.571 340.134C800.385 336.429 802.197 332.728 803.978 329.027C841.059 253.642 913.535 147.016 976.741 60.7647C978.944 57.8594 981.099 52.9978 983.637 47.2739L983.637 47.2738C983.637 47.2734 983.638 47.2731 983.638 47.2727C991.778 28.9119 1003.85 1.67914 1034.05 1.67914C1039.75 1.67914 1044.77 1.49489 1049.58 1.31833L1049.59 1.31832C1054.01 1.15591 1058.26 1 1062.7 1C1079.56 1 1094.72 6.43315 1098.1 12.5455C1102.31 20.016 1105.68 26.1283 1105.68 33.5989C1105.68 42.4278 1102.31 50.5775 1096.41 58.0481C1077.38 82.4165 1057.76 106.272 1038.27 129.979L1038.27 129.98L1038.27 129.981C980.076 200.755 922.97 270.207 885.724 348.043C882.705 354.34 879.574 360.214 876.512 365.959L876.51 365.962L876.509 365.966C865.041 387.481 854.543 407.176 854.543 440.406C854.543 452.631 858.757 455.348 862.128 455.348C863.813 455.348 866.341 454.668 868.869 453.31C887.652 443.219 903.471 429.598 918.392 416.751C937.103 400.64 954.401 385.744 974.361 380.55C975.323 380.3 976.116 379.614 976.479 378.689C981.592 365.657 987.852 352.87 994.086 340.137L994.087 340.136L994.091 340.126C995.905 336.423 997.715 332.725 999.495 329.027C1036.58 253.642 1109.05 147.016 1172.26 60.7647C1174.46 57.8592 1176.62 52.9971 1179.15 47.2725C1187.29 28.9117 1199.37 1.67914 1229.56 1.67914C1235.27 1.67914 1240.29 1.49489 1245.1 1.31833L1245.1 1.31832C1249.53 1.15591 1253.78 1 1258.22 1C1275.07 1 1290.24 6.43315 1293.61 12.5455C1297.83 20.016 1301.2 26.1283 1301.2 33.5989C1301.2 42.4278 1297.83 50.5775 1291.93 58.0481C1272.9 82.4111 1253.29 106.261 1233.8 129.963L1233.79 129.971L1233.79 129.979L1233.79 129.98C1175.59 200.754 1118.49 270.207 1081.24 348.043C1078.22 354.342 1075.09 360.219 1072.03 365.965C1060.56 387.481 1050.06 407.176 1050.06 440.406C1050.06 452.631 1054.27 455.348 1057.64 455.348C1059.33 455.348 1061.86 454.668 1064.39 453.31C1083.17 443.219 1098.99 429.599 1113.91 416.751ZM120.091 149.278H120.091C114.67 149.663 104.136 150.412 88.4881 150.412C64.0486 150.412 39.609 147.696 26.9678 135.471C22.7541 131.396 22.7541 126.642 22.7541 120.53C22.7541 108.306 25.2823 94.7226 29.496 91.3269C33.7098 87.9312 38.7662 83.8563 48.8792 83.8563C55.8384 83.8563 59.6701 84.5914 64.3201 85.4835C71.4951 86.86 80.6182 88.6103 106.186 88.6103C150.008 88.6103 210.686 81.1397 227.541 78.4231C266.307 72.3108 307.602 67.5568 353.11 67.5568C390.191 67.5568 443.283 96.0809 443.283 107.626C443.283 119.851 437.384 127.322 425.586 134.113C420.529 136.83 406.203 141.584 397.775 141.584C387.662 141.584 381.763 136.83 375.864 132.076C373.336 130.038 356.481 125.284 352.267 125.284C317.018 125.284 278.723 128.966 246.069 134.581C243.808 134.969 242.938 137.706 243.437 139.945C243.514 140.291 243.553 140.614 243.553 140.904C243.553 142.801 242.501 144.274 237.021 151.95C232.689 158.017 225.59 167.96 214.057 185.049C159.279 266.546 123.883 344.648 100.287 444.482C97.7583 455.348 96.9156 469.61 96.9156 483.193C96.9156 498.814 87.6454 508.322 69.105 508.322C56.4639 508.322 37.9235 503.568 15.1694 492.701C3.37098 487.268 0 477.081 0 467.573C0 457.386 2.52823 447.199 3.37098 444.482C34.5525 344.648 69.9478 254.322 121.355 165.354C127.254 155.166 128.097 153.129 128.097 151.771C128.097 149.733 126.412 149.054 123.883 149.054C123.233 149.054 121.969 149.144 120.091 149.278ZM712.961 205.423C712.961 211.535 710.433 215.61 700.32 228.514C695.904 234.149 694.22 237.324 692.671 240.243C690.673 244.008 688.9 247.35 681.78 255.001C657.34 281.487 627.001 307.974 587.392 337.177C576.437 345.327 574.751 345.327 573.066 345.327C572.223 345.327 570.538 344.648 570.538 343.289C570.538 341.252 571.38 338.535 579.808 324.273C605.933 280.129 637.957 250.926 673.352 222.402C692.735 206.781 704.534 201.348 708.748 201.348C711.276 201.348 712.961 202.027 712.961 205.423ZM1363.66 225.343C1363.59 225.194 1363.52 225.047 1363.43 224.911C1362.63 223.691 1361.83 223.08 1361.03 223.08C1358.51 223.08 1353.45 223.76 1346.71 231.23C1305.41 274.695 1243.05 353.476 1243.05 406.45C1243.05 409.845 1243.89 418.674 1247.26 426.145C1249.79 431.578 1256.53 440.407 1260.75 440.407C1265.8 440.407 1271.7 438.369 1281.82 426.145C1282.93 424.796 1284.05 423.448 1285.16 422.1C1329.57 368.463 1373.67 315.188 1373.67 250.925C1373.67 243.455 1373.67 233.947 1370.3 231.909C1366.24 229.293 1364.53 227.306 1363.66 225.343Z" fill="#251C15" fill-opacity="0.1"/>
<path d="M1113.91 416.751L1113.58 416.372L1113.91 416.751ZM1237.99 241.417L1238.38 241.736L1238.38 241.727L1237.99 241.417ZM1249.04 230.498L1249.37 230.874L1249.04 230.498ZM1258.22 221.722L1258.59 222.05L1258.6 222.049L1258.22 221.722ZM1419.18 174.182L1419.47 173.775L1419.47 173.77L1419.18 174.182ZM1431.82 187.765L1431.37 187.976L1431.37 187.98L1431.82 187.765ZM1486.73 218.32L1486.7 217.821L1486.73 218.32ZM1581.83 252.963L1581.97 253.443L1581.98 253.441L1581.98 253.438L1581.83 252.963ZM1571.6 257.402L1571.85 257.833L1571.6 257.402ZM1559.08 261.791L1559.14 262.287L1559.15 262.286L1559.16 262.285L1559.08 261.791ZM1530.24 267.277L1530.34 267.765L1530.24 267.277ZM1497.56 273.337L1497.61 273.834L1497.62 273.833L1497.56 273.337ZM1458.79 282.166L1458.31 282.018L1458.31 282.02L1458.79 282.166ZM1355.98 457.385L1356.3 457.762L1356.31 457.76L1355.98 457.385ZM1354.24 458.905L1354.57 459.281V459.281L1354.24 458.905ZM1245.58 493.38L1245.76 492.916L1245.76 492.914L1245.58 493.38ZM1055.12 507.642L1055.03 508.134L1055.04 508.136L1055.05 508.137L1055.12 507.642ZM985.168 477.759L985.492 477.378L985.491 477.378L985.168 477.759ZM859.599 507.642L859.513 508.134L859.523 508.136L859.533 508.137L859.599 507.642ZM789.651 477.759L789.975 477.378L789.974 477.378L789.651 477.759ZM655.655 499.492L655.448 499.037L655.446 499.038L655.655 499.492ZM526.715 481.834L526.909 481.373L526.909 481.373L526.715 481.834ZM481.207 432.257L481.667 432.061L481.666 432.059L481.207 432.257ZM475.308 356.872L474.837 356.704L474.837 356.705L475.308 356.872ZM443.284 297.107L443.513 297.552L443.514 297.551L443.284 297.107ZM288.219 467.572L288.701 467.705L288.701 467.704L288.219 467.572ZM265.465 497.455L265.749 497.866L265.751 497.864L265.465 497.455ZM209.001 484.551L209.334 484.178L209.331 484.175L209.001 484.551ZM216.609 414.922L216.986 415.25L216.609 414.922ZM236.811 386.754L236.353 386.555L236.351 386.558L236.811 386.754ZM287.376 257.717L286.902 257.556L286.901 257.56L287.376 257.717ZM292.161 216.385L291.776 216.704L292.161 216.385ZM368.28 200.668L368.683 200.373L368.681 200.37L368.28 200.668ZM380.253 253.946L380.744 254.04L380.253 253.946ZM390.191 252.963L389.932 252.535L389.926 252.538L389.92 252.542L390.191 252.963ZM617.732 176.219L617.41 175.837L617.406 175.84L617.732 176.219ZM770.268 152.449L770.128 152.929L770.131 152.93L770.268 152.449ZM759.313 281.487L758.963 281.13L758.961 281.131L759.313 281.487ZM572.224 420.711L572.441 421.161L572.442 421.161L572.224 420.711ZM578.123 448.556L578.31 448.092L578.301 448.089L578.291 448.085L578.123 448.556ZM655.438 432.142L655.214 431.695L655.214 431.695L655.438 432.142ZM655.44 432.141L655.664 432.588L655.664 432.588L655.44 432.141ZM660.712 429.54L660.5 429.087L660.499 429.088L660.712 429.54ZM733.404 385.176L733.69 385.586L733.404 385.176ZM792.18 348.722L792.394 349.174L792.397 349.172L792.18 348.722ZM798.569 340.139L798.12 339.919V339.919L798.569 340.139ZM798.571 340.134L799.02 340.354V340.354L798.571 340.134ZM803.978 329.027L803.529 328.806L803.528 328.81L803.978 329.027ZM976.741 60.7647L976.342 60.4625L976.337 60.4692L976.741 60.7647ZM983.637 47.2739L983.199 47.0324L983.189 47.0514L983.18 47.0713L983.637 47.2739ZM1049.58 1.31833L1049.57 0.818421L1049.57 0.818668L1049.58 1.31833ZM1049.59 1.31832L1049.6 1.81823L1049.6 1.81799L1049.59 1.31832ZM1098.1 12.5455L1097.66 12.7869L1097.66 12.7911L1098.1 12.5455ZM1096.41 58.0481L1096.02 57.7383L1096.02 57.7404L1096.41 58.0481ZM1038.27 129.979L1038.65 130.311L1038.65 130.304L1038.66 130.296L1038.27 129.979ZM1038.27 129.98L1037.9 129.648L1037.88 129.664L1037.87 129.682L1038.27 129.98ZM1038.27 129.981L1038.66 130.299L1038.66 130.289L1038.67 130.279L1038.27 129.981ZM885.724 348.043L886.175 348.259L886.175 348.259L885.724 348.043ZM876.512 365.959L876.071 365.724L876.067 365.731L876.512 365.959ZM876.51 365.962L876.952 366.196L876.955 366.191L876.51 365.962ZM876.509 365.966L876.95 366.201L876.951 366.2L876.509 365.966ZM868.869 453.31L869.106 453.751L868.869 453.31ZM918.392 416.751L918.718 417.13L918.392 416.751ZM994.086 340.137L993.647 339.898L993.642 339.908L993.637 339.917L994.086 340.137ZM994.087 340.136L994.526 340.376L994.532 340.365L994.537 340.353L994.087 340.136ZM994.091 340.126L993.642 339.906L993.641 339.909L994.091 340.126ZM999.495 329.027L999.046 328.806L999.044 328.81L999.495 329.027ZM1172.26 60.7647L1171.86 60.4625L1171.85 60.4692L1172.26 60.7647ZM1179.15 47.2725L1179.61 47.4752V47.4752L1179.15 47.2725ZM1245.1 1.31833L1245.09 0.818421L1245.08 0.818668L1245.1 1.31833ZM1245.1 1.31832L1245.11 1.81823L1245.12 1.81799L1245.1 1.31832ZM1293.61 12.5455L1293.17 12.7869L1293.18 12.7911L1293.61 12.5455ZM1291.93 58.0481L1291.53 57.7383L1291.53 57.7404L1291.93 58.0481ZM1233.8 129.963L1234.19 130.281L1234.19 130.281L1233.8 129.963ZM1233.79 129.971L1233.41 129.653L1233.41 129.653L1233.79 129.971ZM1233.79 129.979L1234.16 130.311L1234.17 130.304L1234.17 130.296L1233.79 129.979ZM1233.79 129.98L1233.41 129.648L1233.41 129.655L1233.4 129.662L1233.79 129.98ZM1081.24 348.043L1081.69 348.259L1081.69 348.259L1081.24 348.043ZM1072.03 365.965L1071.58 365.73L1072.03 365.965ZM1064.39 453.31L1064.62 453.751H1064.62L1064.39 453.31ZM120.091 149.278V148.778H120.073L120.055 148.779L120.091 149.278ZM120.091 149.278V149.778H120.109L120.127 149.776L120.091 149.278ZM26.9678 135.471L26.6202 135.831L26.9678 135.471ZM29.496 91.3269L29.1823 90.9376L29.496 91.3269ZM64.3201 85.4835L64.4143 84.9925L64.3201 85.4835ZM227.541 78.4231L227.463 77.9292L227.461 77.9295L227.541 78.4231ZM425.586 134.113L425.822 134.553L425.829 134.55L425.835 134.546L425.586 134.113ZM375.864 132.076L375.55 132.465L375.864 132.076ZM237.021 151.95L237.427 152.241L237.021 151.95ZM214.057 185.049L213.643 184.769L213.642 184.77L214.057 185.049ZM100.287 444.482L99.8 444.367L99.7996 444.369L100.287 444.482ZM15.1694 492.701L15.3849 492.25L15.3785 492.247L15.1694 492.701ZM3.37098 444.482L2.89371 444.333L2.89343 444.334L3.37098 444.482ZM121.355 165.354L120.922 165.103L120.922 165.104L121.355 165.354ZM700.32 228.514L700.714 228.822L700.32 228.514ZM692.671 240.243L692.229 240.009L692.671 240.243ZM681.78 255.001L681.414 254.66L681.412 254.662L681.78 255.001ZM587.392 337.177L587.096 336.775L587.094 336.776L587.392 337.177ZM579.808 324.273L579.377 324.019L579.377 324.019L579.808 324.273ZM673.352 222.402L673.039 222.012L673.352 222.402ZM1346.71 231.23L1347.07 231.575L1347.08 231.565L1346.71 231.23ZM1247.26 426.145L1246.81 426.351L1246.81 426.356L1247.26 426.145ZM1281.82 426.145L1282.2 426.464L1281.82 426.145ZM1285.16 422.1L1285.55 422.419L1285.16 422.1ZM1370.3 231.909L1370.03 232.33L1370.04 232.333L1370.04 232.337L1370.3 231.909ZM246.069 134.581L245.984 134.088L246.069 134.581ZM243.437 139.945L242.949 140.054L243.437 139.945ZM974.361 380.55L974.235 380.067L974.361 380.55ZM976.479 378.689L976.945 378.871L976.479 378.689ZM983.637 47.2738L984.075 47.5153L983.637 47.2738ZM561.534 224.984L561.805 224.564L561.534 224.984ZM565.415 224.59L565.77 224.942L565.415 224.59ZM769.893 443.521L770.39 443.471L769.893 443.521ZM765.013 441.143L764.734 440.728L765.013 441.143ZM973.233 465.438L972.829 465.732L973.233 465.438ZM968.553 464.805L968.228 464.426L968.553 464.805ZM520.397 275.954L520.796 276.256L520.397 275.954ZM1363.43 224.911L1363.85 224.637L1363.43 224.911ZM1363.66 225.343L1364.11 225.14L1363.66 225.343ZM1181.74 453.793L1181.34 454.092L1181.74 453.793ZM1176.93 453.258L1176.59 452.892L1176.93 453.258ZM793.988 347.877L794.193 348.333L793.988 347.877ZM795.497 346.425L795.946 346.644L795.497 346.425ZM1164.05 382.359L1163.88 381.889L1164.05 382.359ZM1163.88 381.889C1146.22 388.258 1130.43 401.864 1113.58 416.372L1114.23 417.13C1131.12 402.589 1146.77 389.123 1164.22 382.83L1163.88 381.889ZM1237.61 241.098C1203.34 282.516 1170.42 329.259 1165.62 379.675L1166.61 379.77C1171.38 329.688 1204.11 283.156 1238.38 241.736L1237.61 241.098ZM1248.71 230.122C1244.83 233.518 1240.84 237.005 1237.6 241.107L1238.38 241.727C1241.56 237.71 1245.47 234.281 1249.37 230.874L1248.71 230.122ZM1257.84 221.394C1255.17 224.464 1251.98 227.26 1248.71 230.122L1249.37 230.874C1252.63 228.021 1255.87 225.181 1258.59 222.05L1257.84 221.394ZM1361.87 157.382C1340.67 157.382 1320.97 166.098 1303.44 178.442C1285.9 190.786 1270.49 206.781 1257.84 221.395L1258.6 222.049C1271.23 207.459 1286.58 191.535 1304.01 179.26C1321.45 166.984 1340.95 158.382 1361.87 158.382V157.382ZM1419.47 173.77C1401.66 161.47 1379.64 157.382 1361.87 157.382V158.382C1379.51 158.382 1401.31 162.445 1418.9 174.593L1419.47 173.77ZM1432.28 187.554C1431 184.803 1429.7 182.718 1427.76 180.633C1425.83 178.557 1423.27 176.496 1419.47 173.775L1418.89 174.588C1422.68 177.301 1425.17 179.315 1427.03 181.314C1428.88 183.304 1430.12 185.293 1431.37 187.976L1432.28 187.554ZM1468.9 218.505C1459.24 218.505 1453.29 217.318 1448.16 212.937C1442.99 208.518 1438.6 200.81 1432.27 187.549L1431.37 187.98C1437.68 201.206 1442.15 209.118 1447.51 213.698C1452.92 218.316 1459.18 219.505 1468.9 219.505V218.505ZM1486.7 217.821C1479.6 218.198 1473.8 218.505 1468.9 218.505V219.505C1473.84 219.505 1479.66 219.196 1486.76 218.82L1486.7 217.821ZM1531.27 216.468C1512.2 216.468 1497.86 217.229 1486.7 217.821L1486.76 218.82C1497.91 218.228 1512.23 217.468 1531.27 217.468V216.468ZM1597.5 240.738C1597.5 237.654 1595.76 234.601 1592.63 231.782C1589.51 228.959 1584.94 226.321 1579.17 224.058C1567.61 219.53 1551.12 216.468 1531.27 216.468V217.468C1551.02 217.468 1567.39 220.518 1578.8 224.989C1584.51 227.225 1588.96 229.808 1591.96 232.524C1594.98 235.244 1596.5 238.049 1596.5 240.738H1597.5ZM1581.98 253.438C1586.19 252.083 1590.05 250.706 1592.86 248.791C1595.69 246.858 1597.5 244.343 1597.5 240.738H1596.5C1596.5 243.925 1594.94 246.163 1592.29 247.965C1589.62 249.786 1585.9 251.126 1581.68 252.487L1581.98 253.438ZM1571.85 257.833C1574.2 256.445 1576.74 254.947 1581.97 253.443L1581.69 252.482C1576.35 254.019 1573.73 255.562 1571.34 256.971L1571.85 257.833ZM1559.16 262.285C1562.67 261.718 1565.11 261.044 1567.04 260.287C1568.97 259.53 1570.39 258.695 1571.85 257.833L1571.34 256.971C1569.88 257.834 1568.52 258.631 1566.67 259.356C1564.82 260.081 1562.46 260.739 1559 261.298L1559.16 262.285ZM1530.34 267.765C1539.8 265.655 1549.09 263.583 1559.14 262.287L1559.01 261.296C1548.91 262.598 1539.58 264.68 1530.13 266.789L1530.34 267.765ZM1497.62 273.833C1509.51 272.413 1520.03 270.066 1530.34 267.765L1530.13 266.789C1519.81 269.091 1509.34 271.427 1497.5 272.84L1497.62 273.833ZM1466.38 275.195C1474.8 275.195 1485.78 275.196 1497.61 273.834L1497.5 272.84C1485.73 274.195 1474.8 274.195 1466.38 274.195V275.195ZM1459.27 282.314C1460.1 279.64 1461.12 277.864 1462.29 276.757C1463.45 275.665 1464.8 275.195 1466.38 275.195V274.195C1464.58 274.195 1462.97 274.744 1461.61 276.029C1460.26 277.3 1459.17 279.258 1458.31 282.018L1459.27 282.314ZM1356.31 457.76C1408.65 411.493 1437.34 354.348 1459.27 282.311L1458.31 282.02C1436.42 353.962 1407.8 410.913 1355.64 457.01L1356.31 457.76ZM1354.57 459.281C1355.15 458.77 1355.73 458.263 1356.3 457.762L1355.65 457.008C1355.07 457.51 1354.49 458.017 1353.91 458.529L1354.57 459.281ZM1273.39 499.313C1308.81 499.313 1334.61 476.733 1354.57 459.281L1353.91 458.529C1333.91 476.016 1308.38 498.313 1273.39 498.313V499.313ZM1245.39 493.843C1253.87 497.262 1264.05 499.313 1273.39 499.313V498.313C1264.18 498.313 1254.13 496.288 1245.76 492.916L1245.39 493.843ZM1181.34 454.092C1186.71 461.307 1195.5 468.408 1206.55 475.117C1217.6 481.829 1230.93 488.167 1245.39 493.845L1245.76 492.914C1231.33 487.251 1218.06 480.937 1207.07 474.262C1196.07 467.583 1187.4 460.561 1182.14 453.495L1181.34 454.092ZM1070.29 509.5C1090.63 509.5 1110.5 501.95 1128.72 491.204C1146.93 480.457 1163.51 466.494 1177.28 453.623L1176.59 452.892C1162.86 465.741 1146.33 479.649 1128.21 490.343C1110.08 501.038 1090.38 508.5 1070.29 508.5V509.5ZM1055.05 508.137C1060.1 508.816 1065.19 509.5 1070.29 509.5V508.5C1065.27 508.5 1060.24 507.826 1055.18 507.146L1055.05 508.137ZM984.844 478.14C1000.09 491.111 1023.78 502.689 1055.03 508.134L1055.2 507.149C1024.09 501.729 1000.58 490.215 985.492 477.378L984.844 478.14ZM972.829 465.732C975.778 469.786 979.693 473.781 984.845 478.141L985.491 477.378C980.375 473.049 976.524 469.111 973.637 465.144L972.829 465.732ZM874.769 509.5C909.437 509.5 942.779 487.568 968.879 465.185L968.228 464.426C942.152 486.788 909.051 508.5 874.769 508.5V509.5ZM859.533 508.137C864.583 508.816 869.673 509.5 874.769 509.5V508.5C869.751 508.5 864.728 507.826 859.666 507.146L859.533 508.137ZM789.328 478.14C804.576 491.111 828.259 502.689 859.513 508.134L859.685 507.149C828.576 501.729 805.066 490.215 789.975 477.378L789.328 478.14ZM769.395 443.57C770.089 450.595 771.658 456.362 774.776 461.822C777.89 467.275 782.533 472.391 789.328 478.141L789.974 477.378C783.226 471.668 778.679 466.639 775.644 461.326C772.613 456.018 771.074 450.396 770.39 443.471L769.395 443.57ZM655.863 499.947C707.946 476.199 741.105 457.831 765.292 441.558L764.734 440.728C740.608 456.96 707.503 475.302 655.448 499.037L655.863 499.947ZM618.574 507.463C632.959 507.463 643.988 505.415 655.864 499.946L655.446 499.038C643.725 504.435 632.843 506.463 618.574 506.463V507.463ZM526.522 482.295C565.291 498.596 593.183 507.463 618.574 507.463V506.463C593.401 506.463 565.672 497.671 526.909 481.373L526.522 482.295ZM480.747 432.453C490.049 454.259 505.294 473.4 526.522 482.295L526.909 481.373C505.999 472.611 490.906 453.719 481.667 432.061L480.747 432.453ZM469.752 384.717C469.752 400.424 473.988 416.792 480.748 432.455L481.666 432.059C474.943 416.481 470.752 400.25 470.752 384.717H469.752ZM474.837 356.705C471.449 366.259 469.752 375.144 469.752 384.717H470.752C470.752 375.273 472.425 366.501 475.779 357.039L474.837 356.705ZM519.998 275.652C500.702 301.145 485.053 328.031 474.837 356.704L475.779 357.039C485.953 328.484 501.546 301.688 520.796 276.256L519.998 275.652ZM503.119 272.479C507.16 272.479 513.413 273.915 519.913 275.413L520.137 274.438C513.693 272.954 507.303 271.479 503.119 271.479V272.479ZM443.514 297.551C455.297 291.447 469.188 285.171 480.661 280.421C486.397 278.046 491.524 276.054 495.477 274.657C497.453 273.959 499.131 273.411 500.442 273.038C501.775 272.659 502.672 272.479 503.119 272.479V271.479C502.512 271.479 501.486 271.701 500.169 272.076C498.83 272.457 497.13 273.012 495.143 273.714C491.169 275.119 486.025 277.118 480.279 279.497C468.786 284.255 454.868 290.543 443.054 296.663L443.514 297.551ZM288.701 467.704C310.56 387.757 373.626 333.515 443.513 297.552L443.055 296.662C373.046 332.688 309.7 387.11 287.737 467.44L288.701 467.704ZM265.751 497.864C278.466 488.984 285.292 480.065 288.701 467.705L287.737 467.439C284.403 479.528 277.746 488.267 265.178 497.045L265.751 497.864ZM246.924 503.388C252.896 503.388 259.745 502.013 265.749 497.866L265.181 497.043C259.386 501.046 252.752 502.388 246.924 502.388V503.388ZM208.667 484.923C216.263 491.725 222.414 496.345 228.375 499.262C234.35 502.185 240.115 503.388 246.924 503.388V502.388C240.25 502.388 234.638 501.213 228.814 498.364C222.977 495.508 216.908 490.96 209.334 484.178L208.667 484.923ZM192.489 457.385C192.489 461.586 194.221 466.43 197.089 471.225C199.963 476.027 204 480.82 208.671 484.926L209.331 484.175C204.731 480.132 200.763 475.417 197.948 470.711C195.127 465.997 193.489 461.334 193.489 457.385H192.489ZM216.232 414.593C210.357 421.348 204.425 428.166 199.966 435.216C195.505 442.27 192.489 449.6 192.489 457.385H193.489C193.489 449.863 196.402 442.722 200.811 435.751C205.222 428.777 211.1 422.017 216.986 415.25L216.232 414.593ZM236.351 386.558C232.274 396.142 224.314 405.301 216.232 414.593L216.986 415.25C225.038 405.992 233.12 396.708 237.272 386.95L236.351 386.558ZM286.901 257.56C272.582 301.003 254.892 343.773 236.353 386.555L237.27 386.953C255.812 344.163 273.517 301.36 287.851 257.873L286.901 257.56ZM295.304 223.759C295.304 224.557 295.101 226.129 294.706 228.307C294.313 230.472 293.735 233.201 293 236.293C291.528 242.477 289.425 250.102 286.902 257.556L287.85 257.877C290.384 250.39 292.495 242.734 293.972 236.524C294.711 233.419 295.293 230.672 295.69 228.486C296.084 226.313 296.304 224.659 296.304 223.759H295.304ZM291.776 216.704C293.643 218.958 295.304 220.992 295.304 223.759H296.304C296.304 220.575 294.369 218.268 292.546 216.066L291.776 216.704ZM287.719 208.139C287.719 211.829 289.847 214.374 291.776 216.704L292.546 216.066C290.586 213.699 288.719 211.419 288.719 208.139H287.719ZM332.042 189.302C320.606 189.302 309.584 191.52 301.404 194.944C297.316 196.655 293.914 198.678 291.526 200.896C289.142 203.111 287.719 205.568 287.719 208.139H288.719C288.719 205.956 289.929 203.744 292.207 201.629C294.48 199.518 297.768 197.55 301.79 195.866C309.834 192.499 320.723 190.302 332.042 190.302V189.302ZM368.681 200.37C367.983 199.433 366.483 198.287 364.405 197.104C362.309 195.909 359.569 194.645 356.333 193.491C349.861 191.182 341.377 189.302 332.042 189.302V190.302C341.247 190.302 349.617 192.157 355.997 194.433C359.187 195.571 361.872 196.811 363.91 197.972C365.968 199.145 367.312 200.206 367.878 200.967L368.681 200.37ZM382.263 237.342C382.263 227.728 379.701 215.4 368.683 200.373L367.876 200.964C378.769 215.82 381.263 227.941 381.263 237.342H382.263ZM380.744 254.04C381.179 251.764 382.263 246.08 382.263 237.342H381.263C381.263 245.991 380.191 251.607 379.762 253.852L380.744 254.04ZM380.578 255C380.578 255.002 380.578 254.997 380.579 254.982C380.58 254.968 380.583 254.948 380.586 254.922C380.593 254.871 380.603 254.804 380.618 254.719C380.647 254.548 380.69 254.324 380.744 254.04L379.762 253.852C379.708 254.133 379.664 254.368 379.632 254.549C379.604 254.715 379.578 254.881 379.578 255H380.578ZM381.763 256.537C381.477 256.537 381.19 256.423 380.971 256.187C380.754 255.954 380.578 255.573 380.578 255H379.578C379.578 255.785 379.824 256.423 380.239 256.869C380.652 257.312 381.207 257.537 381.763 257.537V256.537ZM389.92 252.542C387.815 253.899 386.15 254.905 384.807 255.571C383.454 256.242 382.486 256.537 381.763 256.537V257.537C382.726 257.537 383.866 257.154 385.251 256.467C386.647 255.774 388.353 254.743 390.462 253.383L389.92 252.542ZM497.219 208.318C483.195 208.318 463.091 215.325 443.183 224.322C423.25 233.332 403.428 244.378 389.932 252.535L390.449 253.39C403.922 245.248 423.708 234.222 443.595 225.234C463.507 216.234 483.433 209.318 497.219 209.318V208.318ZM561.805 224.564C544.131 213.171 520.049 208.318 497.219 208.318V209.318C519.937 209.318 543.807 214.152 561.263 225.405L561.805 224.564ZM617.406 175.84C599.181 191.519 581.529 207.607 565.06 224.238L565.77 224.942C582.216 208.334 599.847 192.265 618.058 176.598L617.406 175.84ZM713.805 143.799C669.016 143.799 636.036 160.144 617.41 175.837L618.054 176.602C636.508 161.054 669.262 144.799 713.805 144.799V143.799ZM770.409 151.969C751.821 146.522 730.705 143.799 713.805 143.799V144.799C730.614 144.799 751.635 147.51 770.128 152.929L770.409 151.969ZM804.478 197.952C804.478 189.056 802.568 179.449 797.344 171.115C792.113 162.77 783.581 155.736 770.406 151.968L770.131 152.93C783.081 156.633 791.404 163.521 796.497 171.646C801.596 179.781 803.478 189.19 803.478 197.952H804.478ZM759.663 281.844C769.388 272.303 780.582 258.174 789.347 243.026C798.105 227.89 804.478 211.667 804.478 197.952H803.478C803.478 211.402 797.21 227.439 788.481 242.525C779.76 257.598 768.621 271.654 758.963 281.13L759.663 281.844ZM572.442 421.161C646.674 385.132 707.397 333.474 759.664 281.842L758.961 281.131C706.728 332.729 646.096 384.301 572.005 420.261L572.442 421.161ZM563.453 428.861C563.453 428.024 563.507 427.415 563.689 426.892C563.866 426.385 564.177 425.924 564.757 425.417C565.958 424.369 568.2 423.212 572.441 421.161L572.006 420.261C567.819 422.285 565.426 423.506 564.099 424.664C563.415 425.261 562.989 425.861 562.745 426.564C562.505 427.251 562.453 428 562.453 428.861H563.453ZM578.291 448.085C574.651 446.782 570.933 442.986 568.104 438.932C566.697 436.917 565.528 434.863 564.712 433.069C563.887 431.253 563.453 429.766 563.453 428.861H562.453C562.453 429.993 562.968 431.647 563.802 433.482C564.645 435.338 565.846 437.444 567.284 439.504C570.143 443.6 574.01 447.614 577.954 449.027L578.291 448.085ZM594.135 451.452C588.319 451.452 583.327 450.114 578.31 448.092L577.936 449.02C583.031 451.073 588.153 452.452 594.135 452.452V451.452ZM655.214 431.695C648.577 435.025 638.727 439.967 627.815 444.076C616.897 448.188 604.955 451.452 594.135 451.452V452.452C605.133 452.452 617.207 449.14 628.167 445.012C639.134 440.882 649.027 435.918 655.662 432.589L655.214 431.695ZM655.215 431.694L655.214 431.695L655.662 432.589L655.663 432.589L655.215 431.694ZM655.216 431.694L655.215 431.694L655.663 432.589L655.664 432.588L655.216 431.694ZM660.499 429.088C659.107 429.742 657.32 430.639 655.216 431.694L655.664 432.588C657.773 431.53 659.546 430.64 660.924 429.993L660.499 429.088ZM733.118 384.766C711.114 400.11 688.031 416.205 660.5 429.087L660.924 429.993C688.544 417.069 711.693 400.925 733.69 385.586L733.118 384.766ZM791.966 348.27C771.625 357.913 752.797 371.043 733.118 384.766L733.69 385.586C753.383 371.854 772.141 358.774 792.394 349.174L791.966 348.27ZM793.783 347.421C793.184 347.691 792.578 347.974 791.962 348.272L792.397 349.172C793.005 348.878 793.603 348.599 794.193 348.333L793.783 347.421ZM798.12 339.919C797.095 342.012 796.069 344.108 795.047 346.206L795.946 346.644C796.967 344.547 797.993 342.452 799.018 340.358L798.12 339.919ZM798.122 339.914L798.12 339.919L799.018 340.359L799.02 340.354L798.122 339.914ZM803.528 328.81C801.748 332.509 799.937 336.208 798.122 339.914L799.02 340.354C800.834 336.649 802.647 332.946 804.429 329.244L803.528 328.81ZM976.337 60.4692C913.131 146.722 840.631 253.378 803.529 328.806L804.427 329.247C841.486 253.905 913.939 147.31 977.144 61.0602L976.337 60.4692ZM983.18 47.0713C980.631 52.8205 978.502 57.6152 976.342 60.4626L977.139 61.0668C979.386 58.1037 981.568 53.1751 984.094 47.4766L983.18 47.0713ZM983.199 47.0322L983.199 47.0324L984.075 47.5154L984.075 47.5153L983.199 47.0322ZM1034.05 1.17914C1018.77 1.17914 1008.08 8.07757 1000.19 17.265C992.327 26.433 987.246 37.9001 983.181 47.07L984.095 47.4754C988.17 38.2845 993.197 26.9548 1000.95 17.9162C1008.69 8.8971 1019.13 2.17914 1034.05 2.17914V1.17914ZM1049.57 0.818668C1044.76 0.995251 1039.74 1.17914 1034.05 1.17914V2.17914C1039.76 2.17914 1044.79 1.99454 1049.6 1.818L1049.57 0.818668ZM1049.57 0.818458L1049.57 0.818466L1049.6 1.8182L1049.6 1.81819L1049.57 0.818458ZM1062.7 0.5C1058.25 0.5 1053.99 0.656293 1049.57 0.81866L1049.6 1.81799C1054.03 1.65552 1058.27 1.5 1062.7 1.5V0.5ZM1098.53 12.304C1097.63 10.6727 1095.98 9.13206 1093.78 7.74055C1091.58 6.3448 1088.8 5.07699 1085.61 4.00662C1079.24 1.86582 1071.18 0.5 1062.7 0.5V1.5C1071.08 1.5 1079.03 2.85076 1085.3 4.95461C1088.43 6.00657 1091.13 7.2431 1093.25 8.58515C1095.37 9.93144 1096.87 11.362 1097.66 12.7869L1098.53 12.304ZM1106.18 33.5989C1106.18 25.9763 1102.73 19.7513 1098.53 12.2998L1097.66 12.7911C1101.88 20.2808 1105.18 26.2804 1105.18 33.5989H1106.18ZM1096.8 58.358C1102.76 50.82 1106.18 42.5642 1106.18 33.5989H1105.18C1105.18 42.2915 1101.86 50.3351 1096.02 57.7383L1096.8 58.358ZM1038.66 130.296C1058.15 106.59 1077.77 82.73 1096.8 58.3559L1096.02 57.7404C1076.99 82.103 1057.38 105.953 1037.89 129.661L1038.66 130.296ZM1038.64 130.312L1038.65 130.311L1037.9 129.646L1037.9 129.648L1038.64 130.312ZM1038.67 130.279L1038.67 130.278L1037.87 129.682L1037.87 129.683L1038.67 130.279ZM886.175 348.259C923.39 270.488 980.454 201.082 1038.66 130.299L1037.88 129.664C979.698 200.428 922.55 269.927 885.273 347.827L886.175 348.259ZM876.953 366.194C880.015 360.451 883.151 354.567 886.175 348.259L885.273 347.827C882.26 354.112 879.133 359.978 876.071 365.724L876.953 366.194ZM876.955 366.191L876.957 366.188L876.067 365.731L876.066 365.734L876.955 366.191ZM876.951 366.2L876.952 366.196L876.068 365.729L876.067 365.732L876.951 366.2ZM855.043 440.406C855.043 407.307 865.487 387.706 876.95 366.201L876.067 365.73C864.594 387.256 854.043 407.044 854.043 440.406H855.043ZM862.128 454.848C860.596 454.848 858.862 454.241 857.487 452.183C856.091 450.095 855.043 446.475 855.043 440.406H854.043C854.043 446.562 855.101 450.413 856.655 452.739C858.23 455.096 860.288 455.848 862.128 455.848V454.848ZM868.633 452.87C866.152 454.202 863.706 454.848 862.128 454.848V455.848C863.92 455.848 866.53 455.134 869.106 453.751L868.633 452.87ZM918.066 416.372C903.139 429.225 887.359 442.809 868.633 452.87L869.106 453.751C887.944 443.63 903.803 429.972 918.718 417.13L918.066 416.372ZM974.235 380.067C954.141 385.296 936.751 400.282 918.066 416.372L918.718 417.13C937.454 400.997 954.662 386.193 974.487 381.034L974.235 380.067ZM993.637 339.917C987.405 352.646 981.135 365.452 976.014 378.506L976.945 378.871C982.048 365.862 988.3 353.093 994.535 340.357L993.637 339.917ZM993.648 339.897L993.647 339.898L994.525 340.377L994.526 340.376L993.648 339.897ZM993.641 339.909L993.636 339.919L994.537 340.353L994.542 340.343L993.641 339.909ZM999.044 328.81C997.266 332.506 995.456 336.203 993.642 339.906L994.541 340.346C996.353 336.643 998.165 332.944 999.945 329.244L999.044 328.81ZM1171.85 60.4692C1108.65 146.722 1036.15 253.378 999.046 328.806L999.943 329.247C1037 253.905 1109.46 147.31 1172.66 61.0602L1171.85 60.4692ZM1178.7 47.0699C1176.15 52.8198 1174.02 57.615 1171.86 60.4626L1172.66 61.0668C1174.9 58.1034 1177.08 53.1744 1179.61 47.4752L1178.7 47.0699ZM1229.56 1.17914C1214.29 1.17914 1203.59 8.07753 1195.71 17.265C1187.84 26.4329 1182.76 37.8999 1178.7 47.0699L1179.61 47.4752C1183.69 38.2844 1188.71 26.9547 1196.47 17.9161C1204.21 8.89706 1214.64 2.17914 1229.56 2.17914V1.17914ZM1245.08 0.818668C1240.27 0.995251 1235.26 1.17914 1229.56 1.17914V2.17914C1235.28 2.17914 1240.31 1.99454 1245.12 1.818L1245.08 0.818668ZM1245.09 0.818458L1245.09 0.818466L1245.11 1.8182L1245.11 1.81819L1245.09 0.818458ZM1258.22 0.5C1253.76 0.5 1249.51 0.656293 1245.08 0.81866L1245.12 1.81799C1249.55 1.65552 1253.79 1.5 1258.22 1.5V0.5ZM1294.05 12.304C1293.15 10.6727 1291.49 9.13206 1289.3 7.74055C1287.1 6.3448 1284.32 5.07699 1281.13 4.00662C1274.75 1.86582 1266.69 0.5 1258.22 0.5V1.5C1266.59 1.5 1274.55 2.85076 1280.81 4.95461C1283.94 6.00657 1286.65 7.2431 1288.76 8.58515C1290.89 9.93144 1292.39 11.362 1293.17 12.7869L1294.05 12.304ZM1301.7 33.5989C1301.7 25.9763 1298.25 19.7513 1294.05 12.2998L1293.18 12.7911C1297.4 20.2808 1300.7 26.2804 1300.7 33.5989H1301.7ZM1292.32 58.358C1298.27 50.82 1301.7 42.5642 1301.7 33.5989H1300.7C1300.7 42.2914 1297.38 50.3351 1291.53 57.7383L1292.32 58.358ZM1234.19 130.281C1253.67 106.58 1273.29 82.7247 1292.32 58.3559L1291.53 57.7404C1272.51 82.0976 1252.9 105.943 1233.41 129.646L1234.19 130.281ZM1234.18 130.289L1234.19 130.281L1233.41 129.645L1233.41 129.653L1234.18 130.289ZM1234.17 130.296L1234.18 130.288L1233.41 129.653L1233.4 129.661L1234.17 130.296ZM1234.16 130.312L1234.16 130.311L1233.41 129.646L1233.41 129.648L1234.16 130.312ZM1081.69 348.259C1118.91 270.487 1175.97 201.082 1234.17 130.297L1233.4 129.662C1175.22 200.427 1118.07 269.926 1080.79 347.827L1081.69 348.259ZM1072.47 366.201C1075.53 360.455 1078.67 354.569 1081.69 348.259L1080.79 347.827C1077.78 354.115 1074.65 359.982 1071.58 365.73L1072.47 366.201ZM1050.56 440.406C1050.56 407.307 1061 387.705 1072.47 366.201L1071.58 365.73C1060.11 387.256 1049.56 407.044 1049.56 440.406H1050.56ZM1057.64 454.848C1056.11 454.848 1054.38 454.241 1053 452.183C1051.61 450.095 1050.56 446.475 1050.56 440.406H1049.56C1049.56 446.562 1050.62 450.413 1052.17 452.739C1053.75 455.096 1055.8 455.848 1057.64 455.848V454.848ZM1064.15 452.87C1061.67 454.202 1059.22 454.848 1057.64 454.848V455.848C1059.44 455.848 1062.05 455.134 1064.62 453.751L1064.15 452.87ZM1113.58 416.372C1098.66 429.225 1082.88 442.809 1064.15 452.87L1064.62 453.751C1083.46 443.63 1099.32 429.972 1114.23 417.13L1113.58 416.372ZM120.091 149.778H120.091V148.778H120.091V149.778ZM88.4881 150.912C104.153 150.912 114.701 150.162 120.126 149.776L120.055 148.779C114.64 149.164 104.119 149.912 88.4881 149.912V150.912ZM26.6202 135.831C33.0391 142.038 42.4167 145.8 53.203 148.016C63.996 150.233 76.2544 150.912 88.4881 150.912V149.912C76.2823 149.912 64.1011 149.234 53.4042 147.036C42.7004 144.838 33.5377 141.129 27.3154 135.112L26.6202 135.831ZM22.2541 120.53C22.2541 126.61 22.2328 131.588 26.6202 135.831L27.3154 135.112C23.2754 131.205 23.2541 126.675 23.2541 120.53H22.2541ZM29.1823 90.9376C28.0339 91.8631 27.0462 93.4382 26.2051 95.407C25.3592 97.3873 24.6398 99.8183 24.0563 102.512C22.8889 107.9 22.2541 114.387 22.2541 120.53H23.2541C23.2541 114.448 23.8834 108.032 25.0336 102.724C25.6088 100.069 26.3116 97.7033 27.1248 95.7998C27.9429 93.8847 28.8513 92.4886 29.8098 91.7162L29.1823 90.9376ZM48.8792 83.3563C38.5904 83.3563 33.4206 87.522 29.1823 90.9376L29.8098 91.7162C33.9989 88.3403 38.942 84.3563 48.8792 84.3563V83.3563ZM64.4143 84.9925C59.7537 84.0983 55.8856 83.3563 48.8792 83.3563V84.3563C55.7912 84.3563 59.5865 85.0845 64.2259 85.9745L64.4143 84.9925ZM106.186 88.1103C80.6502 88.1103 71.5586 86.3631 64.4143 84.9925L64.2259 85.9745C71.4315 87.357 80.5862 89.1103 106.186 89.1103V88.1103ZM227.461 77.9295C210.621 80.6438 149.972 88.1103 106.186 88.1103V89.1103C150.045 89.1103 210.752 81.6356 227.62 78.9168L227.461 77.9295ZM353.11 67.0568C307.566 67.0568 266.244 71.8146 227.463 77.9293L227.619 78.917C266.37 72.8071 307.637 68.0568 353.11 68.0568V67.0568ZM443.783 107.626C443.783 106.008 442.863 104.186 441.318 102.275C439.761 100.349 437.509 98.2611 434.714 96.0993C429.121 91.7737 421.293 87.1083 412.318 82.8111C394.376 74.2209 371.755 67.0568 353.11 67.0568V68.0568C371.545 68.0568 394.011 75.1548 411.886 83.713C420.819 87.99 428.582 92.6204 434.102 96.8903C436.864 99.0261 439.05 101.061 440.541 102.904C442.044 104.763 442.783 106.359 442.783 107.626H443.783ZM425.835 134.546C431.767 131.132 436.261 127.521 439.27 123.192C442.285 118.853 443.783 113.827 443.783 107.626H442.783C442.783 113.651 441.332 118.472 438.448 122.622C435.557 126.782 431.203 130.303 425.336 133.68L425.835 134.546ZM397.775 142.084C402.061 142.084 407.804 140.879 413.084 139.347C418.366 137.815 423.25 135.936 425.822 134.553L425.349 133.673C422.865 135.007 418.057 136.863 412.805 138.387C407.551 139.911 401.917 141.084 397.775 141.084V142.084ZM375.55 132.465C381.45 137.22 387.471 142.084 397.775 142.084V141.084C387.853 141.084 382.076 136.44 376.178 131.686L375.55 132.465ZM352.267 125.784C353.261 125.784 355.056 126.069 357.271 126.548C359.47 127.022 362.04 127.677 364.56 128.397C367.081 129.116 369.544 129.898 371.531 130.624C372.525 130.988 373.394 131.336 374.089 131.654C374.795 131.976 375.286 132.252 375.55 132.465L376.178 131.686C375.81 131.39 375.221 131.071 374.505 130.744C373.778 130.412 372.882 130.054 371.875 129.685C369.858 128.948 367.371 128.159 364.835 127.435C362.298 126.711 359.707 126.05 357.482 125.57C355.272 125.093 353.38 124.784 352.267 124.784V125.784ZM246.153 135.073C278.783 129.463 317.049 125.784 352.267 125.784V124.784C316.987 124.784 278.663 128.469 245.984 134.088L246.153 135.073ZM244.053 140.904C244.053 140.57 244.009 140.211 243.925 139.836L242.949 140.054C243.02 140.372 243.053 140.657 243.053 140.904H244.053ZM237.427 152.241C240.161 148.412 241.809 146.104 242.77 144.519C243.739 142.919 244.053 141.984 244.053 140.904H243.053C243.053 141.722 242.841 142.471 241.914 144.001C240.979 145.545 239.361 147.813 236.614 151.66L237.427 152.241ZM214.471 185.329C226.001 168.244 233.097 158.306 237.427 152.241L236.614 151.66C232.28 157.729 225.179 167.675 213.643 184.769L214.471 185.329ZM100.773 444.597C124.356 344.824 159.726 266.778 214.472 185.328L213.642 184.77C158.832 266.315 123.411 344.472 99.8 444.367L100.773 444.597ZM97.4156 483.193C97.4156 469.622 98.2585 455.405 100.774 444.595L99.7996 444.369C97.2582 455.292 96.4156 469.599 96.4156 483.193H97.4156ZM69.105 508.822C78.4557 508.822 85.5475 506.424 90.3042 501.981C95.0659 497.533 97.4156 491.103 97.4156 483.193H96.4156C96.4156 490.904 94.1301 497.038 89.6216 501.25C85.1081 505.466 78.2947 507.822 69.105 507.822V508.822ZM14.9539 493.153C37.7401 504.034 56.3582 508.822 69.105 508.822V507.822C56.5695 507.822 38.1069 503.101 15.3849 492.25L14.9539 493.153ZM-0.5 467.573C-0.5 477.204 2.92682 487.614 14.9603 493.156L15.3785 492.247C3.81513 486.922 0.5 476.959 0.5 467.573H-0.5ZM2.89343 444.334C2.04122 447.081 -0.5 457.32 -0.5 467.573H0.5C0.5 457.452 3.01525 447.316 3.84853 444.63L2.89343 444.334ZM120.922 165.104C69.4903 254.114 34.0819 344.477 2.89371 444.333L3.84824 444.631C35.0231 344.818 70.4052 254.529 121.788 165.604L120.922 165.104ZM127.597 151.771C127.597 152.329 127.432 153.09 126.489 155.033C125.549 156.967 123.873 160.009 120.922 165.103L121.788 165.604C124.737 160.512 126.431 157.441 127.388 155.47C128.341 153.507 128.597 152.571 128.597 151.771H127.597ZM123.883 149.554C125.121 149.554 126.067 149.724 126.689 150.082C126.991 150.256 127.211 150.471 127.359 150.732C127.507 150.995 127.597 151.331 127.597 151.771H128.597C128.597 151.191 128.477 150.679 128.23 150.241C127.982 149.802 127.623 149.466 127.188 149.215C126.335 148.724 125.174 148.554 123.883 148.554V149.554ZM120.127 149.776C122.017 149.642 123.256 149.554 123.883 149.554V148.554C123.21 148.554 121.921 148.646 120.056 148.779L120.127 149.776ZM700.714 228.822C710.799 215.953 713.461 211.739 713.461 205.423H712.461C712.461 211.331 710.067 215.267 699.927 228.206L700.714 228.822ZM693.112 240.477C694.653 237.573 696.322 234.426 700.714 228.822L699.927 228.206C695.486 233.872 693.786 237.074 692.229 240.009L693.112 240.477ZM682.146 255.341C689.3 247.654 691.097 244.276 693.112 240.477L692.229 240.009C690.249 243.74 688.501 247.045 681.414 254.66L682.146 255.341ZM587.689 337.58C627.316 308.363 657.68 281.856 682.147 255.34L681.412 254.662C657 281.119 626.687 307.584 587.096 336.775L587.689 337.58ZM573.066 345.827C573.491 345.827 573.96 345.828 574.584 345.687C575.203 345.548 575.955 345.275 576.98 344.754C579.021 343.715 582.21 341.655 587.691 337.578L587.094 336.776C581.619 340.849 578.487 342.864 576.526 343.863C575.549 344.36 574.878 344.596 574.365 344.712C573.857 344.826 573.483 344.827 573.066 344.827V345.827ZM570.038 343.289C570.038 344.203 570.609 344.847 571.215 345.238C571.815 345.625 572.54 345.827 573.066 345.827V344.827C572.748 344.827 572.209 344.689 571.757 344.397C571.309 344.108 571.038 343.734 571.038 343.289H570.038ZM579.377 324.019C575.163 331.151 572.834 335.414 571.559 338.155C570.281 340.902 570.038 342.167 570.038 343.289H571.038C571.038 342.375 571.216 341.262 572.466 338.577C573.719 335.884 576.025 331.658 580.238 324.528L579.377 324.019ZM673.039 222.012C637.627 250.55 605.548 279.797 579.377 324.019L580.238 324.528C606.318 280.46 638.287 251.302 673.666 222.791L673.039 222.012ZM708.748 200.848C707.605 200.848 706.011 201.212 703.989 201.973C701.957 202.738 699.458 203.917 696.494 205.581C690.564 208.909 682.745 214.19 673.039 222.012L673.666 222.791C683.343 214.993 691.115 209.747 696.983 206.453C699.918 204.806 702.37 203.651 704.341 202.909C706.323 202.163 707.784 201.848 708.748 201.848V200.848ZM713.461 205.423C713.461 203.652 713.021 202.452 712.116 201.723C711.237 201.014 710.031 200.848 708.748 200.848V201.848C709.992 201.848 710.893 202.022 711.489 202.502C712.059 202.961 712.461 203.798 712.461 205.423H713.461ZM1361.03 223.58C1361.56 223.58 1362.23 223.992 1363.01 225.185L1363.85 224.637C1363.03 223.389 1362.1 222.58 1361.03 222.58V223.58ZM1347.08 231.565C1350.41 227.87 1353.31 225.879 1355.66 224.809C1358 223.741 1359.82 223.58 1361.03 223.58V222.58C1359.71 222.58 1357.74 222.759 1355.24 223.899C1352.75 225.036 1349.74 227.119 1346.34 230.895L1347.08 231.565ZM1243.55 406.45C1243.55 380.121 1259.06 347.29 1279.81 315.548C1300.54 283.83 1326.44 253.292 1347.07 231.575L1346.34 230.886C1325.68 252.633 1299.75 283.219 1278.97 315.001C1258.22 346.759 1242.55 379.805 1242.55 406.45H1243.55ZM1247.72 425.939C1244.39 418.554 1243.55 409.801 1243.55 406.45H1242.55C1242.55 409.889 1243.4 418.795 1246.81 426.351L1247.72 425.939ZM1260.75 439.907C1259.85 439.907 1258.75 439.43 1257.51 438.537C1256.29 437.654 1255 436.41 1253.75 434.984C1251.25 432.129 1248.96 428.603 1247.72 425.934L1246.81 426.356C1248.1 429.12 1250.44 432.724 1253 435.643C1254.28 437.103 1255.62 438.406 1256.93 439.348C1258.22 440.28 1259.53 440.907 1260.75 440.907V439.907ZM1281.43 425.826C1276.39 431.917 1272.43 435.435 1269.13 437.432C1265.84 439.419 1263.19 439.907 1260.75 439.907V440.907C1263.36 440.907 1266.19 440.376 1269.64 438.288C1273.08 436.21 1277.13 432.598 1282.2 426.464L1281.43 425.826ZM1284.78 421.781C1283.66 423.129 1282.55 424.478 1281.43 425.826L1282.2 426.464C1283.32 425.115 1284.43 423.767 1285.55 422.419L1284.78 421.781ZM1373.17 250.925C1373.17 282.937 1362.19 312.233 1345.64 340.243C1329.09 368.259 1306.99 394.956 1284.78 421.781L1285.55 422.419C1307.75 395.607 1329.9 368.848 1346.5 340.752C1363.11 312.649 1374.17 283.176 1374.17 250.925H1373.17ZM1370.04 232.337C1370.74 232.76 1371.32 233.609 1371.78 234.861C1372.24 236.104 1372.55 237.673 1372.76 239.439C1373.17 242.969 1373.17 247.182 1373.17 250.925H1374.17C1374.17 247.198 1374.18 242.922 1373.75 239.321C1373.54 237.521 1373.21 235.865 1372.72 234.518C1372.23 233.181 1371.55 232.077 1370.56 231.481L1370.04 232.337ZM1363.2 225.546C1364.13 227.635 1365.93 229.688 1370.03 232.33L1370.57 231.489C1366.56 228.898 1364.93 226.977 1364.11 225.14L1363.2 225.546ZM245.984 134.088C244.647 134.318 243.745 135.245 243.259 136.371C242.776 137.489 242.678 138.841 242.949 140.054L243.925 139.836C243.696 138.81 243.785 137.675 244.177 136.767C244.566 135.868 245.23 135.232 246.153 135.073L245.984 134.088ZM974.487 381.034C975.599 380.745 976.521 379.95 976.945 378.871L976.014 378.506C975.711 379.278 975.047 379.855 974.235 380.067L974.487 381.034ZM984.075 47.5153C984.09 47.4883 984.102 47.46 984.112 47.4308L983.163 47.1146C983.173 47.0861 983.185 47.0585 983.199 47.0322L984.075 47.5153ZM561.263 225.405C562.683 226.32 564.568 226.156 565.77 224.942L565.06 224.238C564.203 225.103 562.843 225.233 561.805 224.564L561.263 225.405ZM770.39 443.471C770.122 440.76 767.031 439.182 764.734 440.728L765.292 441.558C766.925 440.459 769.197 441.567 769.395 443.57L770.39 443.471ZM973.637 465.144C972.383 463.42 969.883 463.007 968.228 464.426L968.879 465.185C970.054 464.177 971.889 464.441 972.829 465.732L973.637 465.144ZM520.796 276.256C521.298 275.592 520.952 274.626 520.137 274.438L519.913 275.413C520.018 275.437 520.066 275.563 519.998 275.652L520.796 276.256ZM1363.01 225.185C1363.08 225.289 1363.14 225.409 1363.2 225.546L1364.11 225.14C1364.04 224.979 1363.96 224.805 1363.85 224.637L1363.01 225.185ZM1182.14 453.495C1180.84 451.738 1178.23 451.358 1176.59 452.892L1177.28 453.623C1178.44 452.535 1180.36 452.767 1181.34 454.092L1182.14 453.495ZM794.193 348.333C794.952 347.992 795.578 347.399 795.946 346.644L795.047 346.206C794.785 346.744 794.336 347.172 793.783 347.421L794.193 348.333ZM1164.22 382.83C1165.54 382.356 1166.48 381.169 1166.61 379.77L1165.62 379.675C1165.52 380.682 1164.84 381.544 1163.88 381.889L1164.22 382.83Z" fill="#190E64" fill-opacity="0.2"/>
</svg>
