<svg width="20" height="20" viewBox="0 0 20 20" fill="none" xmlns="http://www.w3.org/2000/svg">
<g opacity="0.2">
<rect opacity="0.01" width="20" height="20" fill="black"/>
<path fill-rule="evenodd" clip-rule="evenodd" d="M1.66675 10C1.66675 5.39765 5.39771 1.66669 10.0001 1.66669C12.2102 1.66669 14.3298 2.54466 15.8926 4.10746C17.4554 5.67027 18.3334 7.78988 18.3334 10C18.3334 14.6024 14.6025 18.3334 10.0001 18.3334C5.39771 18.3334 1.66675 14.6024 1.66675 10ZM3.33341 10C3.33341 13.6819 6.31818 16.6667 10.0001 16.6667C11.7682 16.6667 13.4639 15.9643 14.7141 14.7141C15.9644 13.4638 16.6667 11.7681 16.6667 10C16.6667 6.31812 13.682 3.33335 10.0001 3.33335C6.31818 3.33335 3.33341 6.31812 3.33341 10Z" fill="black"/>
<path d="M12.5001 9.16669H10.8334V7.50002C10.8334 7.03978 10.4603 6.66669 10.0001 6.66669C9.53984 6.66669 9.16675 7.03978 9.16675 7.50002V9.16669H7.50008C7.03984 9.16669 6.66675 9.53978 6.66675 10C6.66675 10.4603 7.03984 10.8334 7.50008 10.8334H9.16675V12.5C9.16675 12.9603 9.53984 13.3334 10.0001 13.3334C10.4603 13.3334 10.8334 12.9603 10.8334 12.5V10.8334H12.5001C12.9603 10.8334 13.3334 10.4603 13.3334 10C13.3334 9.53978 12.9603 9.16669 12.5001 9.16669Z" fill="black"/>
</g>
</svg>
