<svg width="17" height="16" viewBox="0 0 17 16" fill="none" xmlns="http://www.w3.org/2000/svg">
<path fill-rule="evenodd" clip-rule="evenodd" d="M12.9663 10.8632L15.8295 13.7179C15.9889 13.876 16.0785 14.0913 16.0785 14.3158C16.0785 14.5403 15.9889 14.7556 15.8295 14.9137C15.6713 15.0731 15.4561 15.1628 15.2316 15.1628C15.007 15.1628 14.7918 15.0731 14.6337 14.9137L11.7789 12.0505C10.602 12.9743 9.14874 13.4755 7.65261 13.4737C3.93196 13.4737 0.915771 10.4575 0.915771 6.73684C0.915771 3.01619 3.93196 0 7.65261 0C11.3733 0 14.3895 3.01619 14.3895 6.73684C14.3913 8.23297 13.8901 9.68628 12.9663 10.8632ZM7.65261 1.68421C4.86212 1.68421 2.59998 3.94635 2.59998 6.73684C2.59998 9.52733 4.86212 11.7895 7.65261 11.7895C10.4431 11.7895 12.7052 9.52733 12.7052 6.73684C12.7052 3.94635 10.4431 1.68421 7.65261 1.68421Z" fill="black"/>
</svg>
